# xmcd
#
# Track frame offsets:
#	150
#	17859
#	33546
#	51431
#	68048
#	88315
#	115600
#	128277
#	145870
#	166053
#	182431
#
# Disc length: 2655 seconds
#
# Revision: 2
# Processed by: cddbd v1.5.2PL0 Copyright (c) Steve Scherf et al.
# Submitted via: EasyCDDAExtractor 10.0.2.1
#
DISCID=8b0a5d0b
DTITLE=Kenny Rogers - You Can't Make Old Friends
DYEAR=2014
DGENRE=Country
TTITLE0=You Can't Make Old Friends With Dolly Parton
TTITLE1=All I Need Is One
TTITLE2=You Had To Be There
TTITLE3='merica
TTITLE4=Turn This World Around
TTITLE5=Dreams Of The San Joaquin
TTITLE6=Don't Leave Me In The Night Time Feat. Buckwheat Zydeco
TTITLE7=Look At You
TTITLE8=Neon Horses
TTITLE9=When You Love Someone
TTITLE10=It's Gonna Be Easy Now
EXTD=
EXTT0=
EXTT1=
EXTT2=
EXTT3=
EXTT4=
EXTT5=
EXTT6=
EXTT7=
EXTT8=
EXTT9=
EXTT10=
PLAYORDER=
